Coordinates
version=1
nRows=19
nColumns=24
inDegrees=yes

Units are S.I. units (second, meters, Newtons, ...)
Angles are in degrees.

endheader
time	pelvis_tilt	pelvis_list	pelvis_rotation	pelvis_tx	pelvis_ty	pelvis_tz	hip_flexion_r	hip_adduction_r	hip_rotation_r	knee_angle_r	ankle_angle_r	subtalar_angle_r	mtp_angle_r	hip_flexion_l	hip_adduction_l	hip_rotation_l	knee_angle_l	ankle_angle_l	subtalar_angle_l	mtp_angle_l	lumbar_extension	lumbar_bending	lumbar_rotation
      0.52100000	     -2.92262413	      5.39716598	      3.10629231	     -0.72232037	      0.97205563	      0.28446980	     29.07584011	     -3.87544405	     -6.34654942	     -4.76396495	      6.46585173	     -4.53374270	      0.83563901	    -14.17726692	      9.50504449	      2.74562735	     -5.22307545	     11.96275592	     -2.26241134	      0.14003064	      0.28482203	     -3.65010750	     -2.70434416
      0.52516667	     -2.98441948	      5.36928742	      3.15458873	     -0.71615133	      0.97141865	      0.28462322	     29.08105924	     -3.80999876	     -6.44281547	     -4.84080644	      6.18237445	     -4.87481438	      6.62931331	    -14.23863016	      9.44266885	      2.70831783	     -5.70355134	     11.94682086	     -2.21022443	     -0.68493649	      0.40514247	     -3.60584515	     -2.65353011
      0.52933333	     -3.01734290	      5.33545729	      3.20343225	     -0.70993737	      0.97085457	      0.28475475	     29.07702958	     -3.74919322	     -6.58237278	     -5.04167354	      5.98802714	     -4.92220048	      6.63493924	    -14.32351077	      9.37205215	      2.68594055	     -6.19562438	     11.87176039	     -2.16769826	     -0.67178031	      0.48894486	     -3.54205101	     -2.66611973
      0.53350000	     -3.06827074	      5.30433038	      3.24876659	     -0.70369282	      0.97031011	      0.28491098	     29.08517094	     -3.68872799	     -6.64961480	     -5.28722015	      5.75199193	     -5.05129274	      6.65905865	    -14.35164139	      9.30284442	      2.60742179	     -6.75913947	     11.79465095	     -2.08039667	     -0.63040369	      0.60802296	     -3.49453431	     -2.71656070
      0.53766667	     -3.10599513	      5.26225225	      3.27423746	     -0.69739680	      0.96981830	      0.28506749	     29.09849734	     -3.61612146	     -6.70745113	     -5.62815289	      5.47450987	     -5.21091489	      6.67762769	    -14.40432226	      9.22839713	      2.56995648	     -7.29714977	     11.65296808	     -2.05320948	     -0.59430298	      0.71101224	     -3.41525027	     -2.73078185
      0.54183333	     -3.17590675	      5.22120447	      3.30355569	     -0.69108526	      0.96933734	      0.28524062	     29.13785890	     -3.54528085	     -6.70793639	     -5.99756548	      5.12297451	     -5.43020276	      6.70801895	    -14.37874036	      9.15392227	      2.50737281	     -7.91451143	     11.50040737	     -2.00433586	     -0.53280660	      0.85667786	     -3.34502786	     -2.75139043
      0.54600000	     -3.22831827	      5.17631099	      3.32000418	     -0.68473330	      0.96891304	      0.28542867	     29.15957665	     -3.46723850	     -6.67712987	     -6.41188924	      4.73545755	     -5.69585509	      6.74885642	    -14.35466578	      9.07531111	      2.42478913	     -8.56228353	     11.31191475	     -1.95130601	     -0.44714216	      0.98767776	     -3.26900796	     -2.76282721
      0.55016667	     -3.30131645	      5.11840864	      3.31932223	     -0.67836988	      0.96850752	      0.28567887	     29.18161093	     -3.35579115	     -6.49627819	     -6.81899652	      4.35853525	     -6.22818311	      6.88236234	    -14.25600869	      8.98084069	      2.25537402	     -9.30730449	     11.16326951	     -1.82159215	     -0.16931126	      1.15125755	     -3.17989092	     -2.77350387
      0.55433333	     -3.33693634	      5.05962157	      3.32921452	     -0.67192740	      0.96821789	      0.28586219	     29.18516868	     -3.27197086	     -6.49155683	     -7.30366507	      3.84978130	     -6.40070836	      6.92067721	    -14.22501503	      8.88808761	      2.21900268	     -9.98993616	     10.83599022	     -1.83135002	     -0.06798913	      1.27075316	     -3.08015699	     -2.74935210
      0.55850000	     -3.40661931	      4.98356284	      3.32388231	     -0.66550370	      0.96793018	      0.28614891	     29.18867578	     -3.13861464	     -6.26239488	     -7.74264258	      3.39683866	     -7.07336277	      7.15595711	    -14.07778348	      8.76635868	      2.02977539	    -10.81341611	     10.54864335	     -1.66990307	      0.53137559	      1.43938519	     -2.97287116	     -2.71698636
      0.56266667	     -3.45681141	      4.92479220	      3.30861898	     -0.65903375	      0.96770576	      0.28635784	     29.21978877	     -3.05055555	     -6.22158602	     -8.29306745	      2.81558813	     -7.19174461	      7.19602541	    -13.97074287	      8.68076900	      1.97784798	    -11.59757562	     10.18990824	     -1.72347596	      0.66882326	      1.58152289	     -2.86520761	     -2.69025210
      0.56683333	     -3.53266688	      4.83744354	      3.28858924	     -0.65257579	      0.96750727	      0.28668298	     29.23043249	     -2.90101545	     -5.95983973	     -8.77506977	      2.34554296	     -7.91770068	      7.45072118	    -13.75128623	      8.54281914	      1.75720341	    -12.52870098	      9.81454433	     -1.53948798	      1.52567744	      1.76618492	     -2.74412825	     -2.62848661
      0.57100000	     -3.64572719	      4.77146931	      3.26055852	     -0.64614433	      0.96727685	      0.28697091	     29.33237258	     -2.79116498	     -5.80196440	     -9.36523117	      1.80693610	     -8.32855672	      7.75479005	    -13.46004947	      8.44120156	      1.59377391	    -13.51599280	      9.45394962	     -1.48314197	      2.74986095	      1.99289272	     -2.63621409	     -2.56710219
      0.57516667	     -3.64697928	      4.68622111	      3.23827911	     -0.63961317	      0.96730475	      0.28722636	     29.26405805	     -2.67294068	     -5.71977515	     -9.86667731	      1.15980666	     -8.43159636	      7.80827834	    -13.30402162	      8.31222739	      1.50097806	    -14.45768732	      8.90097954	     -1.52501562	      3.05640007	      2.08454771	     -2.50874479	     -2.52976881
      0.57933333	     -3.68356314	      4.58921367	      3.18517017	     -0.63311296	      0.96730427	      0.28757035	     29.26540810	     -2.52202462	     -5.55721492	    -10.45114277	      0.66352068	     -8.91707202	      8.66332593	    -13.05427472	      8.16447270	      1.30436831	    -15.47242569	      8.24253216	     -1.52942372	      8.57102131	      2.21863978	     -2.35978380	     -2.47764223
      0.58350000	     -3.73557607	      4.48103895	      3.14159795	     -0.62662899	      0.96731972	      0.28790824	     29.28060442	     -2.36880678	     -5.41772038	    -11.03949343	      0.19448719	     -9.23024665	      8.65063980	    -12.72699753	      7.99869881	      1.09592426	    -16.60867930	      7.69062564	     -1.38126794	      8.67620998	      2.37919563	     -2.19728045	     -2.39386011
      0.58766667	     -3.78025201	      4.38043323	      3.10230461	     -0.62016122	      0.96741107	      0.28823920	     29.27921225	     -2.23006539	     -5.29017857	    -11.61266796	     -0.30405317	     -9.45371858	      8.63434228	    -12.37456700	      7.84163094	      0.93453342	    -17.78944270	      7.03986174	     -1.32716689	      8.78339869	      2.52700325	     -2.05246340	     -2.33525268
      0.59183333	     -3.82974942	      4.25518368	      3.04151113	     -0.61371983	      0.96751845	      0.28863797	     29.29888540	     -2.05185265	     -5.12294359	    -12.23102411	     -0.70223037	     -9.90354970	      8.59935656	    -11.95934920	      7.64697007	      0.69282993	    -19.05657970	      6.40239995	     -1.17785073	      9.05281881	      2.67462926	     -1.87430445	     -2.25557044
      0.59600000	     -3.85829700	      4.12246232	      2.99770881	     -0.60727790	      0.96772002	      0.28901802	     29.26449311	     -1.87665445	     -4.98550042	    -12.78835211	     -1.08494010	    -10.12098594	      8.56627322	    -11.53274311	      7.43814384	      0.49938274	    -20.36885742	      5.61658205	     -1.06913916	      9.26923965	      2.80712680	     -1.69557806	     -2.18884594
